<svg width="116" height="36" viewBox="0 0 116 36" fill="none" xmlns="http://www.w3.org/2000/svg">
<g clip-path="url(#clip0_1301_6487)">
<path d="M20.2303 15.5625H15.262V27.0075H20.2303V15.5625Z" fill="#1a1a2e"/>
<path d="M12.0074 27.0075C13.3648 27.0075 14.4652 25.9095 14.4652 24.555C14.4652 23.2005 13.3648 22.1025 12.0074 22.1025C10.65 22.1025 9.54956 23.2005 9.54956 24.555C9.54956 25.9095 10.65 27.0075 12.0074 27.0075Z" fill="#2155FF"/>
<path d="M39.8931 9H34.9698V27H39.8931V9Z" fill="#1a1a2e"/>
<path d="M27.5887 9H22.6655V27H27.5887V9Z" fill="#1a1a2e"/>
<path d="M26.7697 19.6275H33.3314L34.97 15.5475H26.7697V19.6275Z" fill="#1a1a2e"/>
<path d="M51.3782 9.00748H46.455V27.0075H51.3782V9.00748Z" fill="#1a1a2e"/>
<path d="M51.0323 9H41.5316V13.08H51.0323V9Z" fill="#1a1a2e"/>
<path d="M56.2939 13.08H53.0093L51.3707 9H56.2939V13.08Z" fill="#1a1a2e"/>
<path d="M20.2454 9.00748L6.56569 27.0075H0.5L14.1797 9.00748H20.2454Z" fill="#1a1a2e"/>
<path d="M75.6709 9.00748H61.7432V11.1075H67.5383V26.8875H69.8834V11.1075H75.6709V9.00748Z" fill="#1a1a2e"/>
<path d="M84.5552 14.6625C83.5628 14.1094 82.4449 13.8191 81.3082 13.8191C80.1714 13.8191 79.0536 14.1094 78.0611 14.6625C77.1131 15.2237 76.3341 16.0294 75.8062 16.995C75.2432 18.0353 74.9584 19.2029 74.9794 20.385C74.9562 21.5768 75.2548 22.7529 75.8438 23.79C76.412 24.7772 77.2415 25.5894 78.2415 26.1375C79.3211 26.7197 80.5321 27.0166 81.7591 27C82.7304 27.0107 83.6939 26.8271 84.5928 26.46C85.4361 26.1112 86.1835 25.566 86.7725 24.87L86.9304 24.675L85.5925 23.1375L85.367 23.4C84.9435 23.9013 84.4045 24.2925 83.7961 24.54C83.1644 24.799 82.4871 24.9291 81.8042 24.9225C80.965 24.9358 80.1357 24.7399 79.3915 24.3525C78.805 24.0425 78.3025 23.5954 77.9269 23.0495C77.5512 22.5035 77.3136 21.875 77.2343 21.2175H87.5918V20.9175C87.5918 20.835 87.5918 20.7525 87.5918 20.6775C87.5991 20.5851 87.5991 20.4924 87.5918 20.4C87.6149 19.2099 87.3357 18.0333 86.7801 16.98C86.2662 16.018 85.4964 15.2161 84.5552 14.6625ZM77.2418 19.38C77.3182 18.878 77.4756 18.3918 77.7078 17.94C78.0598 17.3105 78.5803 16.7912 79.2111 16.44C79.862 16.0742 80.5988 15.8878 81.3457 15.9C82.093 15.8852 82.8304 16.0718 83.4804 16.44C84.0888 16.8026 84.5895 17.3204 84.931 17.94C85.1772 18.3904 85.3425 18.8803 85.4196 19.3875L77.2418 19.38Z" fill="#1a1a2e"/>
<path d="M99.2196 23.25C98.8517 23.7894 98.3491 24.2237 97.7614 24.51C97.1619 24.7908 96.507 24.9343 95.8448 24.93C95.0568 24.9423 94.2793 24.7483 93.5899 24.3675C92.9368 23.9949 92.3967 23.4533 92.0265 22.8C91.6339 22.0644 91.4372 21.2406 91.4552 20.4075C91.4416 19.5673 91.6461 18.7379 92.049 18C92.4193 17.3466 92.9594 16.805 93.6124 16.4325C94.3026 16.0542 95.08 15.8629 95.8673 15.8775C96.529 15.8706 97.1839 16.0115 97.784 16.29C98.3768 16.5788 98.8805 17.0219 99.2421 17.5725L99.4075 17.8275L101.144 16.65L101.001 16.41C100.502 15.561 99.7579 14.8815 98.8663 14.46C97.9271 14.0175 96.8983 13.7968 95.8598 13.815C94.6618 13.7982 93.4793 14.0874 92.4248 14.655C91.4325 15.1946 90.6081 15.9964 90.0421 16.9725C89.4542 18.0203 89.1607 19.207 89.1928 20.4075C89.1719 21.6 89.4731 22.7761 90.0647 23.8125C90.6315 24.7956 91.455 25.6069 92.4474 26.16C93.4961 26.7285 94.6739 27.0178 95.8673 27C96.9068 27.0196 97.9365 26.7962 98.8739 26.3475C99.7575 25.9242 100.497 25.2514 101.001 24.4125L101.151 24.165L99.4225 22.995L99.2196 23.25Z" fill="#1a1a2e"/>
<path d="M114.816 16.3125C114.386 15.5074 113.716 14.8551 112.899 14.445C112.034 14.0234 111.081 13.8127 110.118 13.83C108.985 13.8031 107.865 14.083 106.879 14.64C106.472 14.8776 106.1 15.1704 105.774 15.51V9H103.519V26.8875H105.774V20.1375C105.752 19.3583 105.923 18.5858 106.27 17.8875C106.58 17.2928 107.062 16.8043 107.653 16.485C108.319 16.1416 109.061 15.9714 109.81 15.99C110.271 15.9613 110.733 16.027 111.167 16.1831C111.601 16.3391 111.999 16.5823 112.336 16.8975C112.975 17.6417 113.301 18.6039 113.245 19.5825V26.8875H115.5V19.3875C115.533 18.3216 115.298 17.2645 114.816 16.3125Z" fill="#1a1a2e"/>
</g>
<defs>
<clipPath id="clip0_1301_6487">
<rect width="115" height="36" fill="white" transform="translate(0.5)"/>
</clipPath>
</defs>
</svg>
